<svg width="16" height="32" viewBox="0 0 16 32" fill="none" xmlns="http://www.w3.org/2000/svg">
<path d="M12.965 31.1668C12.6413 31.1679 12.3215 31.0964 12.0291 30.9577C11.7366 30.819 11.479 30.6165 11.275 30.3651L0.810029 17.3651C0.491352 16.9774 0.317139 16.4911 0.317139 15.9893C0.317139 15.4874 0.491352 15.0011 0.810029 14.6134L11.6434 1.61343C12.0111 1.17096 12.5396 0.89271 13.1125 0.839887C13.6855 0.787065 14.2559 0.963999 14.6984 1.33177C15.1408 1.69953 15.4191 2.22801 15.4719 2.80093C15.5247 3.37385 15.3478 3.9443 14.98 4.38677L5.29503 16.0001L14.655 27.6134C14.92 27.9315 15.0883 28.3187 15.14 28.7294C15.1918 29.1401 15.1248 29.557 14.947 29.9308C14.7692 30.3047 14.488 30.6197 14.1368 30.8387C13.7856 31.0578 13.3789 31.1716 12.965 31.1668V31.1668Z" fill="#199283"/>
</svg>
