<svg width="16" height="32" viewBox="0 0 16 32" fill="none" xmlns="http://www.w3.org/2000/svg">
<path d="M2.66682 31.1666C2.16057 31.1676 1.66996 30.9913 1.28015 30.6682C1.06076 30.4864 0.879404 30.263 0.746474 30.0109C0.613545 29.7588 0.531653 29.483 0.505489 29.1992C0.479324 28.9154 0.509402 28.6292 0.593998 28.3571C0.678595 28.085 0.816046 27.8322 0.998484 27.6132L10.7052 15.9999L1.34515 4.36491C1.16518 4.14329 1.03077 3.88828 0.949672 3.61455C0.86857 3.34081 0.842366 3.05375 0.872568 2.76985C0.90277 2.48595 0.988779 2.21083 1.12566 1.96028C1.26253 1.70974 1.44758 1.48871 1.67015 1.30991C1.89433 1.11267 2.15685 0.963886 2.44126 0.87291C2.72566 0.781934 3.02579 0.750726 3.32283 0.781243C3.61986 0.81176 3.90739 0.903345 4.16735 1.05025C4.42731 1.19715 4.6541 1.3962 4.83348 1.63491L15.2985 14.6349C15.6172 15.0226 15.7914 15.5089 15.7914 16.0107C15.7914 16.5126 15.6172 16.9989 15.2985 17.3866L4.46515 30.3866C4.2478 30.6488 3.97169 30.8561 3.65924 30.9916C3.34678 31.1271 3.00678 31.1871 2.66682 31.1666Z" fill="#199283"/>
</svg>
