<svg width="57" height="57" viewBox="0 0 57 57" fill="none" xmlns="http://www.w3.org/2000/svg">
<circle cx="28.0505" cy="28.0505" r="28.0505" fill="#4C9E93"/>
<path d="M21.9525 18.4047C21.9525 16.758 22.595 15.1788 23.7386 14.0144C24.8821 12.85 26.4332 12.1959 28.0504 12.1959C29.6677 12.1959 31.2187 12.85 32.3623 14.0144C33.5059 15.1788 34.1484 16.758 34.1484 18.4047V28.7527C34.1484 30.3993 33.5059 31.9786 32.3623 33.1429C31.2187 34.3073 29.6677 34.9615 28.0504 34.9615C26.4332 34.9615 24.8821 34.3073 23.7386 33.1429C22.595 31.9786 21.9525 30.3993 21.9525 28.7527V18.4047Z" fill="white"/>
<path d="M18.9035 25.2047C19.1731 25.2047 19.4316 25.3129 19.6222 25.5055C19.8128 25.6981 19.9198 25.9593 19.9198 26.2317V28.2857C19.9198 30.4648 20.7765 32.5546 22.3012 34.0954C23.826 35.6363 25.8941 36.5019 28.0504 36.5019C30.2068 36.5019 32.2748 35.6363 33.7996 34.0954C35.3244 32.5546 36.181 30.4648 36.181 28.2857V26.2317C36.181 25.9593 36.2881 25.6981 36.4787 25.5055C36.6693 25.3129 36.9278 25.2047 37.1973 25.2047C37.4669 25.2047 37.7254 25.3129 37.916 25.5055C38.1066 25.6981 38.2136 25.9593 38.2136 26.2317V28.2857C38.2137 30.8318 37.2778 33.2871 35.5877 35.1753C33.8976 37.0635 31.5736 38.25 29.0667 38.5046V42.664H35.1647C35.4342 42.664 35.6927 42.7722 35.8833 42.9648C36.0739 43.1574 36.181 43.4186 36.181 43.691C36.181 43.9634 36.0739 44.2246 35.8833 44.4172C35.6927 44.6098 35.4342 44.718 35.1647 44.718H20.9362C20.6666 44.718 20.4081 44.6098 20.2175 44.4172C20.0269 44.2246 19.9198 43.9634 19.9198 43.691C19.9198 43.4186 20.0269 43.1574 20.2175 42.9648C20.4081 42.7722 20.6666 42.664 20.9362 42.664H27.0341V38.5046C24.5272 38.25 22.2033 37.0635 20.5131 35.1753C18.823 33.2871 17.8872 30.8318 17.8872 28.2857V26.2317C17.8872 25.9593 17.9943 25.6981 18.1849 25.5055C18.3755 25.3129 18.634 25.2047 18.9035 25.2047Z" fill="white"/>
</svg>
