<svg width="238" height="101" viewBox="0 0 238 101" fill="none" xmlns="http://www.w3.org/2000/svg">
<path d="M18.075 11.35C20.625 11.35 22.8833 11.8833 24.85 12.95C26.8167 14 28.4 15.4083 29.6 17.175C30.8 18.9417 31.5083 20.8833 31.725 23H26.8C26.5333 21.5833 26.025 20.3 25.275 19.15C24.525 18 23.5417 17.0833 22.325 16.4C21.1083 15.7167 19.65 15.375 17.95 15.375C15.7667 15.375 13.9167 15.8917 12.4 16.925C10.9 17.9417 9.75833 19.5167 8.975 21.65C8.20833 23.7833 7.825 26.5167 7.825 29.85C7.825 34.8833 8.68333 38.5833 10.4 40.95C12.1333 43.3 14.65 44.475 17.95 44.475C19.65 44.475 21.1083 44.1167 22.325 43.4C23.5417 42.6833 24.525 41.725 25.275 40.525C26.025 39.325 26.5333 38.025 26.8 36.625H31.725C31.5417 38.1583 31.125 39.6417 30.475 41.075C29.8417 42.4917 28.9667 43.7583 27.85 44.875C26.7333 45.9917 25.3583 46.875 23.725 47.525C22.1083 48.175 20.225 48.5 18.075 48.5C14.825 48.5 12.05 47.7583 9.75 46.275C7.46667 44.7917 5.71667 42.6583 4.5 39.875C3.3 37.0917 2.7 33.7333 2.7 29.8C2.7 25.8833 3.3 22.55 4.5 19.8C5.7 17.05 7.44167 14.9583 9.725 13.525C12.025 12.075 14.8083 11.35 18.075 11.35ZM42.807 48.5C41.1404 48.5 39.6654 48.2083 38.382 47.625C37.0987 47.025 36.0904 46.1667 35.357 45.05C34.6404 43.9333 34.282 42.5833 34.282 41C34.282 38.1333 35.282 36 37.282 34.6C39.282 33.2 42.4904 32.45 46.907 32.35L51.532 32.225V30.2C51.532 28.6167 51.057 27.3667 50.107 26.45C49.157 25.5167 47.682 25.05 45.682 25.05C44.1987 25.0667 42.8904 25.4167 41.757 26.1C40.6404 26.7833 39.9154 27.9 39.582 29.45H35.507C35.607 27.7667 36.082 26.35 36.932 25.2C37.782 24.0333 38.9654 23.15 40.482 22.55C42.0154 21.95 43.8237 21.65 45.907 21.65C48.157 21.65 50.0237 21.9667 51.507 22.6C53.007 23.2333 54.1237 24.1667 54.857 25.4C55.607 26.6333 55.982 28.15 55.982 29.95V48H52.032L51.707 43.15C50.707 45.1667 49.432 46.5667 47.882 47.35C46.3487 48.1167 44.657 48.5 42.807 48.5ZM44.207 45.175C45.0737 45.175 45.932 45.0167 46.782 44.7C47.6487 44.3833 48.4404 43.9583 49.157 43.425C49.8737 42.875 50.4404 42.2667 50.857 41.6C51.2904 40.9167 51.5154 40.2167 51.532 39.5V35.075L47.682 35.15C45.7154 35.1833 44.0654 35.3833 42.732 35.75C41.4154 36.1167 40.4237 36.6917 39.757 37.475C39.107 38.2583 38.782 39.2833 38.782 40.55C38.782 42 39.282 43.1333 40.282 43.95C41.2987 44.7667 42.607 45.175 44.207 45.175ZM73.5422 25.525H67.7172V41.6C67.7172 42.5167 67.8089 43.1917 67.9922 43.625C68.1922 44.0417 68.5172 44.3083 68.9672 44.425C69.4339 44.5417 70.0672 44.6 70.8672 44.6H73.6922V47.7C73.3755 47.8167 72.8922 47.9167 72.2422 48C71.6089 48.0833 70.8172 48.125 69.8672 48.125C68.0839 48.125 66.7005 47.8833 65.7172 47.4C64.7339 46.9167 64.0422 46.2 63.6422 45.25C63.2589 44.3 63.0672 43.1333 63.0672 41.75V25.525H58.8672V22.15H63.1922L64.3172 14.625H67.7172V22.125H73.5422V25.525ZM87.5508 21.65C89.4008 21.65 91.0674 22.0083 92.5508 22.725C94.0341 23.425 95.2424 24.425 96.1758 25.725C97.1258 27.025 97.7174 28.5583 97.9508 30.325H93.8508C93.7008 29.425 93.3508 28.6 92.8008 27.85C92.2674 27.1 91.5591 26.5 90.6758 26.05C89.7924 25.6 88.7591 25.375 87.5758 25.375C85.3591 25.375 83.5591 26.175 82.1758 27.775C80.7924 29.375 80.1008 31.825 80.1008 35.125C80.1008 38.1083 80.7341 40.5 82.0008 42.3C83.2841 44.0833 85.1674 44.975 87.6508 44.975C88.8341 44.975 89.8591 44.75 90.7258 44.3C91.6091 43.8333 92.3174 43.225 92.8508 42.475C93.3841 41.7083 93.7258 40.8917 93.8758 40.025H97.9008C97.6841 41.7583 97.1008 43.2583 96.1508 44.525C95.2008 45.7917 93.9841 46.775 92.5008 47.475C91.0341 48.1583 89.3841 48.5 87.5508 48.5C85.2341 48.5 83.1758 47.9917 81.3758 46.975C79.5924 45.9583 78.1924 44.4583 77.1758 42.475C76.1591 40.4917 75.6508 38.0583 75.6508 35.175C75.6508 32.475 76.1091 30.1167 77.0258 28.1C77.9591 26.0667 79.3091 24.4833 81.0758 23.35C82.8591 22.2167 85.0174 21.65 87.5508 21.65ZM101.954 48V10.85H106.454V25.95C106.887 25.2333 107.471 24.5667 108.204 23.95C108.937 23.3167 109.829 22.8083 110.879 22.425C111.929 22.025 113.146 21.825 114.529 21.825C116.212 21.825 117.737 22.1417 119.104 22.775C120.471 23.3917 121.554 24.275 122.354 25.425C123.154 26.575 123.554 27.9417 123.554 29.525V48H118.929V30.45C118.929 28.9 118.396 27.7083 117.329 26.875C116.279 26.025 114.904 25.6 113.204 25.6C112.054 25.6 110.971 25.7917 109.954 26.175C108.937 26.5417 108.112 27.1083 107.479 27.875C106.862 28.625 106.554 29.5833 106.554 30.75V48H101.954Z" fill="#3A3A3A"/>
<path d="M18.075 89.65C20.625 89.65 22.8833 89.1167 24.85 88.05C26.8167 87 28.4 85.5917 29.6 83.825C30.8 82.0583 31.5083 80.1167 31.725 78H26.8C26.5333 79.4167 26.025 80.7 25.275 81.85C24.525 83 23.5417 83.9167 22.325 84.6C21.1083 85.2833 19.65 85.625 17.95 85.625C15.7667 85.625 13.9167 85.1083 12.4 84.075C10.9 83.0583 9.75833 81.4833 8.975 79.35C8.20833 77.2167 7.825 74.4833 7.825 71.15C7.825 66.1167 8.68333 62.4167 10.4 60.05C12.1333 57.7 14.65 56.525 17.95 56.525C19.65 56.525 21.1083 56.8833 22.325 57.6C23.5417 58.3167 24.525 59.275 25.275 60.475C26.025 61.675 26.5333 62.975 26.8 64.375H31.725C31.5417 62.8417 31.125 61.3583 30.475 59.925C29.8417 58.5083 28.9667 57.2417 27.85 56.125C26.7333 55.0083 25.3583 54.125 23.725 53.475C22.1083 52.825 20.225 52.5 18.075 52.5C14.825 52.5 12.05 53.2417 9.75 54.725C7.46667 56.2083 5.71667 58.3417 4.5 61.125C3.3 63.9083 2.7 67.2667 2.7 71.2C2.7 75.1167 3.3 78.45 4.5 81.2C5.7 83.95 7.44167 86.0417 9.725 87.475C12.025 88.925 14.8083 89.65 18.075 89.65ZM42.807 52.5C41.1404 52.5 39.6654 52.7917 38.382 53.375C37.0987 53.975 36.0904 54.8333 35.357 55.95C34.6404 57.0667 34.282 58.4167 34.282 60C34.282 62.8667 35.282 65 37.282 66.4C39.282 67.8 42.4904 68.55 46.907 68.65L51.532 68.775V70.8C51.532 72.3833 51.057 73.6333 50.107 74.55C49.157 75.4833 47.682 75.95 45.682 75.95C44.1987 75.9333 42.8904 75.5833 41.757 74.9C40.6404 74.2167 39.9154 73.1 39.582 71.55H35.507C35.607 73.2333 36.082 74.65 36.932 75.8C37.782 76.9667 38.9654 77.85 40.482 78.45C42.0154 79.05 43.8237 79.35 45.907 79.35C48.157 79.35 50.0237 79.0333 51.507 78.4C53.007 77.7667 54.1237 76.8333 54.857 75.6C55.607 74.3667 55.982 72.85 55.982 71.05V53H52.032L51.707 57.85C50.707 55.8333 49.432 54.4333 47.882 53.65C46.3487 52.8833 44.657 52.5 42.807 52.5ZM44.207 55.825C45.0737 55.825 45.932 55.9833 46.782 56.3C47.6487 56.6167 48.4404 57.0417 49.157 57.575C49.8737 58.125 50.4404 58.7333 50.857 59.4C51.2904 60.0833 51.5154 60.7833 51.532 61.5V65.925L47.682 65.85C45.7154 65.8167 44.0654 65.6167 42.732 65.25C41.4154 64.8833 40.4237 64.3083 39.757 63.525C39.107 62.7417 38.782 61.7167 38.782 60.45C38.782 59 39.282 57.8667 40.282 57.05C41.2987 56.2333 42.607 55.825 44.207 55.825ZM73.5422 75.475H67.7172V59.4C67.7172 58.4833 67.8089 57.8083 67.9922 57.375C68.1922 56.9583 68.5172 56.6917 68.9672 56.575C69.4339 56.4583 70.0672 56.4 70.8672 56.4H73.6922V53.3C73.3755 53.1833 72.8922 53.0833 72.2422 53C71.6089 52.9167 70.8172 52.875 69.8672 52.875C68.0839 52.875 66.7005 53.1167 65.7172 53.6C64.7339 54.0833 64.0422 54.8 63.6422 55.75C63.2589 56.7 63.0672 57.8667 63.0672 59.25V75.475H58.8672V78.85H63.1922L64.3172 86.375H67.7172V78.875H73.5422V75.475ZM87.5508 79.35C89.4008 79.35 91.0674 78.9917 92.5508 78.275C94.0341 77.575 95.2424 76.575 96.1758 75.275C97.1258 73.975 97.7174 72.4417 97.9508 70.675H93.8508C93.7008 71.575 93.3508 72.4 92.8008 73.15C92.2674 73.9 91.5591 74.5 90.6758 74.95C89.7924 75.4 88.7591 75.625 87.5758 75.625C85.3591 75.625 83.5591 74.825 82.1758 73.225C80.7924 71.625 80.1008 69.175 80.1008 65.875C80.1008 62.8917 80.7341 60.5 82.0008 58.7C83.2841 56.9167 85.1674 56.025 87.6508 56.025C88.8341 56.025 89.8591 56.25 90.7258 56.7C91.6091 57.1667 92.3174 57.775 92.8508 58.525C93.3841 59.2917 93.7258 60.1083 93.8758 60.975H97.9008C97.6841 59.2417 97.1008 57.7417 96.1508 56.475C95.2008 55.2083 93.9841 54.225 92.5008 53.525C91.0341 52.8417 89.3841 52.5 87.5508 52.5C85.2341 52.5 83.1758 53.0083 81.3758 54.025C79.5924 55.0417 78.1924 56.5417 77.1758 58.525C76.1591 60.5083 75.6508 62.9417 75.6508 65.825C75.6508 68.525 76.1091 70.8833 77.0258 72.9C77.9591 74.9333 79.3091 76.5167 81.0758 77.65C82.8591 78.7833 85.0174 79.35 87.5508 79.35ZM101.954 53V90.15H106.454V75.05C106.887 75.7667 107.471 76.4333 108.204 77.05C108.937 77.6833 109.829 78.1917 110.879 78.575C111.929 78.975 113.146 79.175 114.529 79.175C116.212 79.175 117.737 78.8583 119.104 78.225C120.471 77.6083 121.554 76.725 122.354 75.575C123.154 74.425 123.554 73.0583 123.554 71.475V53H118.929V70.55C118.929 72.1 118.396 73.2917 117.329 74.125C116.279 74.975 114.904 75.4 113.204 75.4C112.054 75.4 110.971 75.2083 109.954 74.825C108.937 74.4583 108.112 73.8917 107.479 73.125C106.862 72.375 106.554 71.4167 106.554 70.25V53H101.954Z" fill="#199283"/>
</svg>
