<svg width="35" height="35" viewBox="0 0 35 35" fill="none" xmlns="http://www.w3.org/2000/svg">
<path d="M17.5 0C7.83594 0 0 7.83594 0 17.5C0 27.1641 7.83594 35 17.5 35C27.1641 35 35 27.1641 35 17.5C35 7.83594 27.1641 0 17.5 0ZM18.75 25.9375C18.75 26.1094 18.6094 26.25 18.4375 26.25H16.5625C16.3906 26.25 16.25 26.1094 16.25 25.9375V15.3125C16.25 15.1406 16.3906 15 16.5625 15H18.4375C18.6094 15 18.75 15.1406 18.75 15.3125V25.9375ZM17.5 12.5C17.0093 12.49 16.5422 12.288 16.1987 11.9375C15.8553 11.587 15.6629 11.1158 15.6629 10.625C15.6629 10.1342 15.8553 9.66304 16.1987 9.3125C16.5422 8.96196 17.0093 8.76002 17.5 8.75C17.9907 8.76002 18.4578 8.96196 18.8013 9.3125C19.1447 9.66304 19.3371 10.1342 19.3371 10.625C19.3371 11.1158 19.1447 11.587 18.8013 11.9375C18.4578 12.288 17.9907 12.49 17.5 12.5Z" fill="#605E5E"/>
</svg>
