<svg width="28" height="21" viewBox="0 0 28 21" fill="none" xmlns="http://www.w3.org/2000/svg">
<path d="M2.625 0C1.92881 0 1.26113 0.301703 0.768845 0.838739C0.276562 1.37578 0 2.10415 0 2.86364V18.1364C0 18.8958 0.276562 19.6242 0.768845 20.1613C1.26113 20.6983 1.92881 21 2.625 21H25.375C26.0712 21 26.7389 20.6983 27.2312 20.1613C27.7234 19.6242 28 18.8958 28 18.1364V2.86364C28 2.10415 27.7234 1.37578 27.2312 0.838739C26.7389 0.301703 26.0712 0 25.375 0H2.625ZM7.44625 6.20836C7.44625 6.58937 7.30751 6.95477 7.06055 7.22419C6.81358 7.4936 6.47863 7.64496 6.12937 7.64496C5.78012 7.64496 5.44517 7.4936 5.1982 7.22419C4.95124 6.95477 4.8125 6.58937 4.8125 6.20836C4.8125 5.82736 4.95124 5.46195 5.1982 5.19254C5.44517 4.92313 5.78012 4.77177 6.12937 4.77177C6.47863 4.77177 6.81358 4.92313 7.06055 5.19254C7.30751 5.46195 7.44625 5.82736 7.44625 6.20836ZM17.9463 6.20836C17.9463 6.58937 17.8075 6.95477 17.5605 7.22419C17.3136 7.4936 16.9786 7.64496 16.6294 7.64496C16.2801 7.64496 15.9452 7.4936 15.6982 7.22419C15.4512 6.95477 15.3125 6.58937 15.3125 6.20836C15.3125 5.82736 15.4512 5.46195 15.6982 5.19254C15.9452 4.92313 16.2801 4.77177 16.6294 4.77177C16.9786 4.77177 17.3136 4.92313 17.5605 5.19254C17.8075 5.46195 17.9463 5.82736 17.9463 6.20836ZM5.25 16.2273C5.25 15.9741 5.34219 15.7313 5.50628 15.5523C5.67038 15.3733 5.89294 15.2727 6.125 15.2727H21.875C22.1071 15.2727 22.3296 15.3733 22.4937 15.5523C22.6578 15.7313 22.75 15.9741 22.75 16.2273C22.75 16.4804 22.6578 16.7232 22.4937 16.9022C22.3296 17.0813 22.1071 17.1818 21.875 17.1818H6.125C5.89294 17.1818 5.67038 17.0813 5.50628 16.9022C5.34219 16.7232 5.25 16.4804 5.25 16.2273ZM21.8785 7.64591C21.5292 7.64591 21.1943 7.49455 20.9473 7.22514C20.7004 6.95573 20.5616 6.59033 20.5616 6.20932C20.5616 5.82831 20.7004 5.46291 20.9473 5.1935C21.1943 4.92408 21.5292 4.77273 21.8785 4.77273C22.2278 4.77273 22.5627 4.92408 22.8097 5.1935C23.0566 5.46291 23.1954 5.82831 23.1954 6.20932C23.1954 6.59033 23.0566 6.95573 22.8097 7.22514C22.5627 7.49455 22.2278 7.64591 21.8785 7.64591ZM8.7465 12.4186C8.39724 12.4186 8.06229 12.2673 7.81533 11.9979C7.56837 11.7285 7.42963 11.3631 7.42963 10.982C7.42963 10.601 7.56837 10.2356 7.81533 9.96622C8.06229 9.69681 8.39724 9.54545 8.7465 9.54545C9.09576 9.54545 9.43071 9.69681 9.67767 9.96622C9.92463 10.2356 10.0634 10.601 10.0634 10.982C10.0634 11.3631 9.92463 11.7285 9.67767 11.9979C9.43071 12.2673 9.09576 12.4186 8.7465 12.4186ZM15.3212 10.9811C15.3212 11.3621 15.1825 11.7275 14.9355 11.9969C14.6886 12.2663 14.3536 12.4177 14.0044 12.4177C13.6551 12.4177 13.3202 12.2663 13.0732 11.9969C12.8262 11.7275 12.6875 11.3621 12.6875 10.9811C12.6875 10.6001 12.8262 10.2347 13.0732 9.96527C13.3202 9.69585 13.6551 9.5445 14.0044 9.5445C14.3536 9.5445 14.6886 9.69585 14.9355 9.96527C15.1825 10.2347 15.3212 10.6001 15.3212 10.9811ZM19.2622 12.4186C18.913 12.4186 18.578 12.2673 18.3311 11.9979C18.0841 11.7285 17.9454 11.3631 17.9454 10.982C17.9454 10.601 18.0841 10.2356 18.3311 9.96622C18.578 9.69681 18.913 9.54545 19.2622 9.54545C19.6115 9.54545 19.9465 9.69681 20.1934 9.96622C20.4404 10.2356 20.5791 10.601 20.5791 10.982C20.5791 11.3631 20.4404 11.7285 20.1934 11.9979C19.9465 12.2673 19.6115 12.4186 19.2622 12.4186ZM12.6962 6.20836C12.6962 6.58937 12.5575 6.95477 12.3105 7.22419C12.0636 7.4936 11.7286 7.64496 11.3794 7.64496C11.0301 7.64496 10.6952 7.4936 10.4482 7.22419C10.2012 6.95477 10.0625 6.58937 10.0625 6.20836C10.0625 5.82736 10.2012 5.46195 10.4482 5.19254C10.6952 4.92313 11.0301 4.77177 11.3794 4.77177C11.7286 4.77177 12.0636 4.92313 12.3105 5.19254C12.5575 5.46195 12.6962 5.82736 12.6962 6.20836Z" fill="#605E5E"/>
</svg>
